<svg width="9118" height="6087" viewBox="0 0 9118 6087" fill="none" xmlns="http://www.w3.org/2000/svg">
<path d="M3492.57 5930V5814.61L3899.71 5256.48H3492.98V5091.99H4155.85V5207.38L3748.72 5765.51H4155.45V5930H3492.57ZM5837.89 5511C5837.89 5603.2 5820.16 5681.35 5784.69 5745.46C5749.23 5809.56 5701.22 5858.26 5640.66 5891.54C5580.37 5924.82 5512.72 5941.46 5437.7 5941.46C5362.41 5941.46 5294.63 5924.68 5234.34 5891.13C5174.05 5857.57 5126.18 5808.88 5090.72 5745.05C5055.53 5680.94 5037.93 5602.93 5037.93 5511C5037.93 5418.79 5055.53 5340.64 5090.72 5276.53C5126.18 5212.43 5174.05 5163.73 5234.34 5130.45C5294.63 5097.17 5362.41 5080.53 5437.7 5080.53C5512.72 5080.53 5580.37 5097.17 5640.66 5130.45C5701.22 5163.73 5749.23 5212.43 5784.69 5276.53C5820.16 5340.64 5837.89 5418.79 5837.89 5511ZM5630.84 5511C5630.84 5456.44 5623.07 5410.34 5607.52 5372.69C5592.24 5335.05 5570.14 5306.54 5541.23 5287.17C5512.59 5267.8 5478.08 5258.12 5437.7 5258.12C5397.6 5258.12 5363.1 5267.8 5334.18 5287.17C5305.27 5306.54 5283.03 5335.05 5267.48 5372.69C5252.21 5410.34 5244.57 5456.44 5244.57 5511C5244.57 5565.55 5252.21 5611.65 5267.48 5649.3C5283.03 5686.94 5305.27 5715.45 5334.18 5734.82C5363.1 5754.19 5397.6 5763.87 5437.7 5763.87C5478.08 5763.87 5512.59 5754.19 5541.23 5734.82C5570.14 5715.45 5592.24 5686.94 5607.52 5649.3C5623.07 5611.65 5630.84 5565.55 5630.84 5511ZM7475.93 5091.99V5930H7304.07L6970.59 5446.34H6965.27V5930H6762.72V5091.99H6937.04L7266.84 5574.83H7273.8V5091.99H7475.93ZM8409.87 5930V5091.99H8994.19V5256.48H8612.42V5428.34H8964.32V5593.24H8612.42V5765.51H8994.19V5930H8409.87Z" fill="white"/>
<path d="M3576.54 3836.02H3601.83L3979.41 4717.64H3983.02L4360.6 3836.02H4385.9V4761H4356.99V3926.35H4353.38L3995.67 4761H3966.76L3609.06 3926.35H3605.44V4761H3576.54V3836.02ZM4602.24 4761H4571.52L4902.13 3836.02H4941.88L5272.49 4761H5241.78L4923.81 3872.15H4920.2L4602.24 4761ZM4707.02 4419.55H5136.99V4448.46H4707.02V4419.55ZM5458.23 4761V3836.02H5729.22C5781.01 3836.02 5826.78 3847.01 5866.52 3868.99C5906.57 3890.97 5937.88 3921.68 5960.47 3961.12C5983.35 4000.57 5994.79 4046.79 5994.79 4099.78C5994.79 4152.17 5983.35 4198.09 5960.47 4237.54C5937.88 4276.68 5906.57 4307.24 5866.52 4329.22C5826.78 4350.9 5781.01 4361.74 5729.22 4361.74H5472.68V4332.83H5729.22C5775.59 4332.83 5816.54 4323.2 5852.07 4303.93C5887.6 4284.66 5915.45 4257.56 5935.63 4222.63C5955.8 4187.7 5965.89 4146.75 5965.89 4099.78C5965.89 4052.51 5955.8 4011.26 5935.63 3976.03C5915.45 3940.8 5887.6 3913.55 5852.07 3894.28C5816.54 3874.71 5775.59 3864.92 5729.22 3864.92H5487.14V4761H5458.23ZM5810.52 4340.06L6038.15 4761H6005.63L5778 4340.06H5810.52ZM6240.72 4761V3836.02H6269.62V4412.32H6273.24L6797.15 3836.02H6836.9L6428.6 4284.06L6831.48 4761H6793.54L6408.73 4305.74L6269.62 4459.3V4761H6240.72ZM7382.15 3836.02H7407.45L7785.03 4717.64H7788.64L8166.22 3836.02H8191.51V4761H8162.61V3926.35H8158.99L7801.29 4761H7772.38L7414.67 3926.35H7411.06V4761H7382.15V3836.02ZM8378.95 3836.02H8415.08L8724.01 4289.48H8727.62L9036.55 3836.02H9072.68L8740.27 4321.99V4761H8711.36V4321.99L8378.95 3836.02Z" fill="white"/>
<path d="M1005.01 2045.12C1005.01 2008.23 1017.38 1972.71 1040.16 1943.68L1299.66 1612.95C1366.67 1527.55 1496.5 1529.14 1561.4 1616.14L1806.45 1944.65C1827.68 1973.11 1839.15 2007.67 1839.15 2043.18V5922.07C1839.15 6013.09 1765.37 6086.87 1674.36 6086.87H1169.77C1078.77 6086.87 1004.99 6013.58 1004.98 5922.57C1004.93 5571.18 1004.85 4729.54 1005 4125.99C1005.18 3436.4 1005.05 2309.27 1005.01 2045.12Z" fill="white"/>
<path d="M807.228 822.424C809.938 774.364 791.015 727.925 755.594 695.33L268.902 247.454C166.14 152.887 0.00213623 225.779 0.00213623 365.432V5926.37C0.00213623 6014.92 71.7849 6086.7 160.333 6086.7H641.469C733.739 6086.7 807.071 6009.66 802.015 5917.53C777.75 5475.38 715.614 4261.62 715.457 3423.77C715.285 2511.16 788.475 1154.9 807.228 822.424Z" fill="white"/>
<path d="M2037.33 822.424C2034.62 774.364 2053.55 727.925 2088.97 695.33L2575.66 247.454C2678.42 152.887 2844.56 225.779 2844.56 365.432V5926.37C2844.56 6014.92 2772.78 6086.7 2684.23 6086.7H2203.09C2110.82 6086.7 2037.49 6009.66 2042.55 5917.53C2066.81 5475.38 2128.95 4261.62 2129.11 3423.77C2129.28 2511.16 2056.09 1154.9 2037.33 822.424Z" fill="white"/>
</svg>
